<svg id="Layer_1" data-name="Layer 1" xmlns="http://www.w3.org/2000/svg" viewBox="0 0 797.57 160.12"><defs><style>.cls-1{fill:#3e3f32;}</style></defs><title>9 green</title><path class="cls-1" d="M3.78,148.11V122.4H6.54v23.1H19.38v2.61Z"/><path class="cls-1" d="M39.25,145.73a9.62,9.62,0,0,1-7.19,2.81,9.54,9.54,0,0,1-7.18-2.81,10.35,10.35,0,0,1-2.74-7.59V122.4h2.75v15.82a7.9,7.9,0,0,0,1.95,5.63,7.73,7.73,0,0,0,10.45,0,7.88,7.88,0,0,0,1.94-5.68V122.4H42v15.74A10.44,10.44,0,0,1,39.25,145.73Z"/><path class="cls-1" d="M49,148.11H45.49l10-13L45.85,122.4h3.37l8,10.47,8-10.47h3.36l-9.67,12.71,10,13H65.48l-8.25-10.72Z"/><path class="cls-1" d="M89.56,145.73a10.59,10.59,0,0,1-14.36,0,10.4,10.4,0,0,1-2.73-7.59V122.4h2.74v15.82a7.91,7.91,0,0,0,2,5.63,7.75,7.75,0,0,0,10.46,0,7.88,7.88,0,0,0,1.94-5.68V122.4h2.75v15.74A10.33,10.33,0,0,1,89.56,145.73Z"/><path class="cls-1" d="M99.15,148.11V122.4h8.4a8,8,0,0,1,5.57,1.87,7.3,7.3,0,0,1,.23,9.84,7.42,7.42,0,0,1-4.92,2.08l10.19,11.92H115l-10.18-12h-2.92v12Zm2.75-14.49h5.32c3.43,0,5.14-1.43,5.14-4.31s-1.71-4.34-5.14-4.34H101.9Z"/><path class="cls-1" d="M128.22,148.11v-10.9l-10.14-14.76h3.39l8.18,12,8.18-12h3.32L131,137.3v10.86Z"/><path class="cls-1" d="M152.8,148.11V122.4h8.1a8,8,0,0,1,5.63,1.92,6.16,6.16,0,0,1,2.05,4.67,5.83,5.83,0,0,1-2.93,5.46,6.08,6.08,0,0,1,4.64,6.15,6.86,6.86,0,0,1-2.46,5.39,9.32,9.32,0,0,1-6.38,2.1Zm2.75-14.49h5.54a5,5,0,0,0,3.52-1.23,4.44,4.44,0,0,0,0-6.23,4.74,4.74,0,0,0-3.5-1.23h-5.53Zm0,12h6.23a6.28,6.28,0,0,0,4.3-1.3,4.38,4.38,0,0,0,1.49-3.48,4.49,4.49,0,0,0-1.46-3.5,6.28,6.28,0,0,0-4.3-1.31h-6.26Z"/><path class="cls-1" d="M171.9,148.11l11.44-25.71h2.21L197,148.11h-2.89l-3.62-8h-12.3l-3.54,8Zm12.5-21.84-5,11.26h10Z"/><path class="cls-1" d="M204,148.11V125h-8.32V122.4H215V125h-8.33v23.1Z"/><path class="cls-1" d="M219.16,148.11V122.4h2.75v11.19h15V122.4h2.75v25.71h-2.75V136.19h-15v11.92Z"/><path class="cls-1" d="M246.86,148.11V122.4h8.4a8,8,0,0,1,5.57,1.87,7.31,7.31,0,0,1,.25,9.84,7.54,7.54,0,0,1-4.92,2.08l10.17,11.92h-3.59l-10.18-12h-2.92v12Zm2.75-14.49h5.33c3.42,0,5.14-1.43,5.14-4.31s-1.72-4.34-5.14-4.34h-5.33Z"/><path class="cls-1" d="M290.1,144.7a13.51,13.51,0,1,1,3.87-9.45A12.85,12.85,0,0,1,290.1,144.7Zm-16.91-1.85a10.62,10.62,0,0,0,15,0,11.07,11.07,0,0,0,0-15.19,10.62,10.62,0,0,0-15,0A11.07,11.07,0,0,0,273.19,142.85Z"/><path class="cls-1" d="M320.15,144.7a13.53,13.53,0,1,1,3.86-9.45A12.8,12.8,0,0,1,320.15,144.7Zm-16.9-1.85a10.6,10.6,0,0,0,14.95,0,11.07,11.07,0,0,0,0-15.19,10.6,10.6,0,0,0-14.95,0A11.07,11.07,0,0,0,303.25,142.85Z"/><path class="cls-1" d="M329.34,122.4h2.53l9.93,13.21,9.91-13.21h2.54v25.71h-2.77V127.2l-9.7,12.91-9.71-12.91v20.91h-2.73Z"/><path class="cls-1" d="M384.65,148.82a7.72,7.72,0,0,1-5.48-2A6.9,6.9,0,0,1,377,141.6a6.06,6.06,0,0,1,1.43-4.12,16.11,16.11,0,0,1,4-3.11l.58-.32a17.56,17.56,0,0,1-2.36-2.88,5.64,5.64,0,0,1-.88-3.06,5.11,5.11,0,0,1,1.82-4.07,6.71,6.71,0,0,1,4.48-1.54,6,6,0,0,1,4.35,1.65,5.58,5.58,0,0,1,1.69,4.14q0,3.68-5.15,6.33l5.87,5.72,3.2-4.18h2.88L394.47,142l6.69,6.51h-3.34L393,143.82a18.64,18.64,0,0,1-4.07,3.81A7.85,7.85,0,0,1,384.65,148.82Zm.17-2.34a5.67,5.67,0,0,0,3.33-1,15.74,15.74,0,0,0,3.22-3.25l-6.69-6.52-.79.39a11.92,11.92,0,0,0-3.2,2.35,5,5,0,0,0,.45,6.7A5.41,5.41,0,0,0,384.82,146.48Zm-2.58-18.32a3.52,3.52,0,0,0,.47,1.76,6.29,6.29,0,0,0,1,1.4c.32.36.87.9,1.63,1.62l.21-.11c.92-.5,1.6-.91,2.08-1.22a5.71,5.71,0,0,0,1.34-1.3,3,3,0,0,0,.65-1.86,4,4,0,0,0-1-2.71,3.42,3.42,0,0,0-2.63-1.06,3.93,3.93,0,0,0-2.66.94,3.14,3.14,0,0,0-1.08,2.56Z"/><path class="cls-1" d="M421.19,147.83V122.2h2.74v11.16h15V122.2h2.75v25.63h-2.75V136h-15v11.88Z"/><path class="cls-1" d="M469.61,144.44a13.5,13.5,0,1,1,3.85-9.42A12.8,12.8,0,0,1,469.61,144.44Zm-16.85-1.84a10.6,10.6,0,0,0,14.9,0,11,11,0,0,0,0-15.15,10.56,10.56,0,0,0-14.9,0A11,11,0,0,0,452.76,142.6Z"/><path class="cls-1" d="M478.75,122.2h2.53l9.89,13.17,9.89-13.17h2.53v25.63h-2.76V127l-9.68,12.88L481.47,127v20.85h-2.72Z"/><path class="cls-1" d="M510.75,147.83V122.2h14.61v2.6H513.48v8.58h9.72V136h-9.72v9.29h11.88v2.6Z"/><path class="cls-1" d="M539.6,147.83V122.2H548a7.94,7.94,0,0,1,5.56,1.86,7.29,7.29,0,0,1,.23,9.82,7.43,7.43,0,0,1-4.9,2.07L559,147.83H555.4l-10.14-11.91h-2.92v11.91Zm2.74-14.45h5.31c3.41,0,5.12-1.42,5.12-4.29s-1.71-4.33-5.12-4.33h-5.31Z"/><path class="cls-1" d="M562.27,147.83V122.2h14.6v2.6H565v8.58h9.72V136H565v9.29h11.89v2.6Z"/><path class="cls-1" d="M603.85,147.83H601.4l-16.35-21v21h-2.79V122.2h2.46l16.36,21v-21h2.77Z"/><path class="cls-1" d="M631.74,144.44a13.5,13.5,0,1,1,3.85-9.42A12.84,12.84,0,0,1,631.74,144.44Zm-16.85-1.84a10.59,10.59,0,0,0,14.91,0,11,11,0,0,0,0-15.15,10.56,10.56,0,0,0-14.91,0A11,11,0,0,0,614.89,142.6Z"/><path class="cls-1" d="M648.08,147.83,637,122.2h3.08l9.11,21.16,9.1-21.16h3l-11,25.63Z"/><path class="cls-1" d="M660,147.83,671.4,122.2h2.2L685,147.83h-2.88l-3.58-7.92H666.4l-3.53,8Zm12.46-21.77-5,11.22h10Z"/><path class="cls-1" d="M692,147.83v-23h-8.3v-2.6H703v2.6h-8.31v23Z"/><path class="cls-1" d="M707.13,147.83V122.2h2.75v25.63Z"/><path class="cls-1" d="M737.84,144.44a13.5,13.5,0,1,1,3.84-9.42A12.87,12.87,0,0,1,737.84,144.44ZM721,142.6a10.59,10.59,0,0,0,14.91,0,11,11,0,0,0,0-15.15,10.56,10.56,0,0,0-14.91,0A11,11,0,0,0,721,142.6Z"/><path class="cls-1" d="M768.5,147.83h-2.45l-16.25-21v21h-2.75V122.2h2.46l16.23,21v-21h2.75Z"/><path class="cls-1" d="M782.33,148.26a11.29,11.29,0,0,1-5.52-1.31,7.41,7.41,0,0,1-3.33-3.31l2.28-1.62a7.37,7.37,0,0,0,6.62,3.68,5.75,5.75,0,0,0,3.67-1.15,3.67,3.67,0,0,0,1.46-3.07c0-2.15-1.22-3.68-3.68-4.66l-3.78-1.45a10,10,0,0,1-4.33-2.73,6.44,6.44,0,0,1-1.34-4.26,5.83,5.83,0,0,1,2.22-4.77,8.57,8.57,0,0,1,5.62-1.8,9.19,9.19,0,0,1,4.24,1,8.13,8.13,0,0,1,3,2.52L787.34,127a6.6,6.6,0,0,0-5.23-2.63,5.6,5.6,0,0,0-3.56,1.1,3.36,3.36,0,0,0-1.42,2.82A3.73,3.73,0,0,0,778,131a7.75,7.75,0,0,0,2.94,1.76l3.39,1.28a11,11,0,0,1,4.47,2.9,6.62,6.62,0,0,1,1.49,4.48,6.3,6.3,0,0,1-2.2,5A8.58,8.58,0,0,1,782.33,148.26Z"/><path class="cls-1" d="M41.58,12.45l27,65.5a46.35,46.35,0,0,0,3.47,6.76,14.21,14.21,0,0,0,5.17,4.72v.91H58.75v-.91q5-2.61.79-13l-4.2-10.35H22.59l-2.51,6.25c-1.81,4.55-2.67,8.21-2.55,11a7,7,0,0,0,3.35,6.08v.91H2.69v-.91A18.15,18.15,0,0,0,9.06,84a53,53,0,0,0,6-11.2L40.55,12.45Zm-18,50.94H54.2l-15.58-38Z"/><path class="cls-1" d="M98.66,5V78.25a22.13,22.13,0,0,0,1,7.67,6,6,0,0,0,3.46,3.47v.91H86.83v-.91a6,6,0,0,0,3.47-3.47,22.62,22.62,0,0,0,1-7.67V19.72q0-7.15-5-9.32V9.49Z"/><path class="cls-1" d="M166.21,77.72l.79.91A31.76,31.76,0,0,1,157.45,88a24,24,0,0,1-13.08,3.58,27.5,27.5,0,0,1-10.86-2.1,23.39,23.39,0,0,1-8.41-6,26.5,26.5,0,0,1-5.35-9.38A37.58,37.58,0,0,1,117.88,62a39.72,39.72,0,0,1,1.87-12.34A29.5,29.5,0,0,1,125,39.84a23.25,23.25,0,0,1,8.24-6.3,26.66,26.66,0,0,1,22.4.51,18.79,18.79,0,0,1,7.62,8A28.5,28.5,0,0,1,166,55.18v2.73H126.28v2.5a34,34,0,0,0,2.39,13.42,20.17,20.17,0,0,0,7,8.81,18.7,18.7,0,0,0,11.09,3.24Q157.11,85.9,166.21,77.72ZM126.52,55.2l31.27-1.48a33.07,33.07,0,0,0-1.65-10.06,15.28,15.28,0,0,0-4.66-7,12.11,12.11,0,0,0-7.9-2.64,14.08,14.08,0,0,0-11.66,5.8Q127.42,45.66,126.52,55.2Z"/><path class="cls-1" d="M205.28,58.73l15.35,20.12a70.06,70.06,0,0,0,5.86,7,17.3,17.3,0,0,0,5.06,3.58v.91H212.28v-.91a4,4,0,0,0,2.61-3.64c.08-1.66-.83-3.75-2.72-6.25l-12.4-16.26-10.12,14.1q-3.3,4.55-3.07,7.79a4.45,4.45,0,0,0,3.18,4.26v.91H171v-.91a26.9,26.9,0,0,0,6.37-3.81,63.49,63.49,0,0,0,8.87-9.38l12.06-14.78L185.08,44a80,80,0,0,0-6-7,18,18,0,0,0-4.94-3.59v-.91h19.33v.91a4,4,0,0,0-2.62,3.64c-.07,1.67.84,3.75,2.73,6.26l10.35,13.53,8-11.14q3.63-5,3.24-8.14a4.74,4.74,0,0,0-3.24-4.15v-.91h18.75v.91a27,27,0,0,0-7.56,4.78A78.81,78.81,0,0,0,215,47Z"/><path class="cls-1" d="M287.2,86.36h1.7v.91A9.6,9.6,0,0,1,285.28,90a11.12,11.12,0,0,1-4.72,1A7.15,7.15,0,0,1,275,88.64a10,10,0,0,1-2.39-6.37,19.6,19.6,0,0,1-4.72,5.06,19,19,0,0,1-6.42,3.3,20.37,20.37,0,0,1-13.37-.35,13.09,13.09,0,0,1-6.53-4.88,14.47,14.47,0,0,1-2.62-8.82,15.15,15.15,0,0,1,6.48-12.85Q251.9,59,263.84,59a42.86,42.86,0,0,1,8.76.69V48.49q0-7.38-3.41-10.91T259.79,34q-8,0-11.71,4.89a6.76,6.76,0,0,1,3.35,2,5.3,5.3,0,0,1,1.31,3.64,5,5,0,0,1-1.65,3.81A5.58,5.58,0,0,1,247.17,50a5.22,5.22,0,0,1-4-1.7A6,6,0,0,1,241.6,44a9.9,9.9,0,0,1,1-4.21,12.28,12.28,0,0,1,3.75-4.26,19,19,0,0,1,6.82-3.19,29.7,29.7,0,0,1,7.62-1.08,31.47,31.47,0,0,1,7.23.85,16.74,16.74,0,0,1,6.53,3.19,12.77,12.77,0,0,1,4.21,5.8A20.8,20.8,0,0,1,280,48.23V78.59c0,3,.47,5,1.42,6.08S284.28,86.36,287.2,86.36Zm-14.56-7v-17a46.49,46.49,0,0,0-6-.57q-9.09,0-14.21,3.81A12.29,12.29,0,0,0,247.28,76a10.58,10.58,0,0,0,3.13,8,11.22,11.22,0,0,0,8.13,3,15.94,15.94,0,0,0,7.85-2.16,18.51,18.51,0,0,0,6.25-5.55Z"/><path class="cls-1" d="M312.78,45.88V78.29a22.13,22.13,0,0,0,1,7.67,6,6,0,0,0,3.47,3.47v.91H301v-.91A6,6,0,0,0,304.42,86a22.13,22.13,0,0,0,1-7.67V45.65a13.84,13.84,0,0,0-.91-5.29,7.55,7.55,0,0,0-4.09-3.69v-.91l12.36-4.44V43.38q12.06-12.06,23.31-12.06,15.12,0,15.13,16.49V78.29a22.62,22.62,0,0,0,1,7.67,6,6,0,0,0,3.47,3.47v.91h-16.3v-.91A6,6,0,0,0,342.86,86a22.62,22.62,0,0,0,1-7.67V51.45q0-7.05-2.67-10.29t-8.7-3.24a27.19,27.19,0,0,0-9,1.87A39.88,39.88,0,0,0,312.78,45.88Z"/><path class="cls-1" d="M419.56,5v72.2a18.49,18.49,0,0,0,1,6.43,6.81,6.81,0,0,0,4,4v.92l-12.4,3V81a26.19,26.19,0,0,1-7.56,7.27,18.57,18.57,0,0,1-10.52,3.3,24.32,24.32,0,0,1-9.95-2,21.06,21.06,0,0,1-7.67-5.74,26.14,26.14,0,0,1-4.89-9,37.77,37.77,0,0,1-1.71-11.66,40.37,40.37,0,0,1,2-12.85,29.77,29.77,0,0,1,5.69-10.17,24.51,24.51,0,0,1,8.93-6.54A28.32,28.32,0,0,1,398,31.35a29.71,29.71,0,0,1,8.07,1A23,23,0,0,1,412.17,35V18.59q0-7.17-6.14-9.33V8.35Zm-7.4,73.23V45.42a16.93,16.93,0,0,0-5.28-8.3A14.23,14.23,0,0,0,397.5,34a16.56,16.56,0,0,0-14.16,7.11q-5.18,7.11-5.17,20.07,0,11.72,5.28,18.14a16.7,16.7,0,0,0,13.48,6.42,18.46,18.46,0,0,0,8.41-2.21,21,21,0,0,0,6.82-5.26Z"/><path class="cls-1" d="M487.1,77.72l.8.91A31.9,31.9,0,0,1,478.34,88a24,24,0,0,1-13.06,3.58,27.5,27.5,0,0,1-10.86-2.1,23.42,23.42,0,0,1-8.42-6,26.63,26.63,0,0,1-5.34-9.38A37.32,37.32,0,0,1,438.77,62a39.44,39.44,0,0,1,1.88-12.34,29.33,29.33,0,0,1,5.29-9.84,23.39,23.39,0,0,1,8.18-6.31,26.66,26.66,0,0,1,22.4.51,18.79,18.79,0,0,1,7.62,8,28.5,28.5,0,0,1,2.73,13.13V57.9H447.19v2.5a34,34,0,0,0,2.38,13.42,20.3,20.3,0,0,0,7,8.81,18.69,18.69,0,0,0,11.08,3.24Q478,85.9,487.1,77.72ZM447.41,55.2l31.28-1.48A33.38,33.38,0,0,0,477,43.66a15.3,15.3,0,0,0-4.67-7,12.07,12.07,0,0,0-7.9-2.56,14,14,0,0,0-11.65,5.8Q448.28,45.66,447.41,55.2Z"/><path class="cls-1" d="M513.37,43.83a52.62,52.62,0,0,1,7-7.39,22.63,22.63,0,0,1,6.26-4.09,12.71,12.71,0,0,1,4.37-1A6,6,0,0,1,535.6,33a5.81,5.81,0,0,1,1.88,4.32,6.06,6.06,0,0,1-1.71,4.38,5.76,5.76,0,0,1-4.32,1.76,5.46,5.46,0,0,1-4-1.82A6.88,6.88,0,0,1,525.53,37c-1.33.15-3.19,1.2-5.57,3.13A42,42,0,0,0,513.37,47V78.29a23.53,23.53,0,0,0,.91,6.93c.6,2,2.16,3.38,4.66,4.21v.91h-17.4v-.91A6,6,0,0,0,505,86a22.62,22.62,0,0,0,1-7.67V45.65a14.07,14.07,0,0,0-.91-5.29,7.57,7.57,0,0,0-4.1-3.69v-.91l12.4-4.44Z"/><path class="cls-1" d="M582.39,13.7h21.83q14.67,0,22.57,5.74t7.91,16.09A24.18,24.18,0,0,1,633.16,44a19.76,19.76,0,0,1-5.57,7.84,24.24,24.24,0,0,1-10,5.29,44.18,44.18,0,0,1-11.88,1.65,30.94,30.94,0,0,1-6.37-.57v-.91q12.85-.34,19.5-5.74t6.66-15.18q0-9.9-6.37-14.84t-18.08-4.95h-6.14V78.29a22.62,22.62,0,0,0,1,7.67,6,6,0,0,0,3.47,3.47v.91h-17v-.91A6,6,0,0,0,585.86,86a22.62,22.62,0,0,0,1-7.67V25.75a22.68,22.68,0,0,0-1-7.68,6,6,0,0,0-3.47-3.46Z"/><path class="cls-1" d="M691.44,86.36h1.71v.91A9.7,9.7,0,0,1,689.57,90a11.2,11.2,0,0,1-4.73,1,7.14,7.14,0,0,1-5.56-2.38,10,10,0,0,1-2.39-6.37,19.6,19.6,0,0,1-4.72,5.06,19.07,19.07,0,0,1-6.43,3.3,20.34,20.34,0,0,1-13.36-.35,13.15,13.15,0,0,1-6.54-4.88,14.59,14.59,0,0,1-2.61-8.82,15.15,15.15,0,0,1,6.48-12.85q6.48-4.77,18.42-4.78a43.58,43.58,0,0,1,8.76.69V48.49q0-7.38-3.42-10.91T664,34q-8,0-11.72,4.89a6.79,6.79,0,0,1,3.36,2A5.3,5.3,0,0,1,657,44.55a5,5,0,0,1-1.65,3.81A5.58,5.58,0,0,1,651.41,50a5.19,5.19,0,0,1-4-1.7,5.92,5.92,0,0,1-1.6-4.21,9.62,9.62,0,0,1,1-4.21,12.28,12.28,0,0,1,3.75-4.26,19,19,0,0,1,6.82-3.19A29.7,29.7,0,0,1,665,31.37a32,32,0,0,1,7.22.85,16.71,16.71,0,0,1,6.54,3.19,13,13,0,0,1,4.21,5.8,21,21,0,0,1,1.31,7.06V78.63c0,3,.47,5,1.42,6.08S688.56,86.36,691.44,86.36Zm-14.55-7v-17a46.49,46.49,0,0,0-6-.57q-9.1,0-14.22,3.81A12.27,12.27,0,0,0,651.56,76a10.63,10.63,0,0,0,3.12,8,11.22,11.22,0,0,0,8.14,3,15.88,15.88,0,0,0,7.84-2.16,18.51,18.51,0,0,0,6.23-5.54Z"/><path class="cls-1" d="M746.14,77V45.65a14.07,14.07,0,0,0-.91-5.29,7.57,7.57,0,0,0-4.1-3.69v-.91l12.4-4.44V77.26a18.49,18.49,0,0,0,1,6.43,6.81,6.81,0,0,0,4,4v.92l-12.39,3v-12a42.75,42.75,0,0,1-10.81,9.15,22.53,22.53,0,0,1-11.14,2.9q-7.4,0-11.26-4.32t-3.86-12.17V45.65a14.07,14.07,0,0,0-.91-5.29,7.57,7.57,0,0,0-4.1-3.69v-.91l12.4-4.44V71.46q0,7,2.67,10.3c1.78,2.15,4.68,3.24,8.7,3.24Q736.37,85,746.14,77Z"/><path class="cls-1" d="M786.85,5V78.25a22.62,22.62,0,0,0,1,7.67,6,6,0,0,0,3.47,3.47v.91H775v-.91a6,6,0,0,0,3.47-3.47,22.62,22.62,0,0,0,1-7.67V19.72q0-7.15-5-9.32V9.49Z"/></svg>