<svg
    id="Layer_1"
    data-name="Layer 1"
    xmlns="http://www.w3.org/2000/svg"
    viewBox="0 0 890.7 223.01"
    >
    <defs>
        <style>.cls-1{fill:#fff;}</style>
    </defs>
    <title>9 white</title>
    <path class="cls-1" d="M57,167.46V141.75h2.75v23.1H72.6v2.61Z"/>
    <path class="cls-1" d="M92.46,165.08a10.59,10.59,0,0,1-14.37,0,10.35,10.35,0,0,1-2.74-7.59V141.75h2.76v15.82a7.84,7.84,0,0,0,1.94,5.63,7.73,7.73,0,0,0,10.45,0,7.83,7.83,0,0,0,2-5.68V141.75h2.74v15.74A10.4,10.4,0,0,1,92.46,165.08Z"/>
    <path class="cls-1" d="M102.18,167.46H98.71l10-13-9.63-12.71h3.37l8,10.47,8-10.47h3.36l-9.67,12.71,10,13H118.7l-8.26-10.72Z"/>
    <path class="cls-1" d="M142.78,165.08a10.6,10.6,0,0,1-14.37,0,10.44,10.44,0,0,1-2.73-7.59V141.75h2.75v15.82a7.82,7.82,0,0,0,2,5.63,7.73,7.73,0,0,0,10.45,0,7.86,7.86,0,0,0,1.94-5.68V141.75h2.76v15.74A10.37,10.37,0,0,1,142.78,165.08Z"/>
    <path class="cls-1" d="M152.36,167.46V141.75h8.4a8,8,0,0,1,5.57,1.87,7.29,7.29,0,0,1,.24,9.84,7.44,7.44,0,0,1-4.92,2.08l10.18,11.92h-3.59l-10.17-12h-2.93v12ZM155.12,153h5.31c3.43,0,5.14-1.43,5.14-4.31s-1.71-4.34-5.14-4.34h-5.31Z"/>
    <path class="cls-1" d="M181.44,167.46v-10.9L171.29,141.8h3.4l8.17,12,8.18-12h3.33l-10.18,14.85v10.86Z"/>
    <path class="cls-1" d="M206,167.46V141.75h8.11a8,8,0,0,1,5.62,1.92,6.13,6.13,0,0,1,2,4.67,5.81,5.81,0,0,1-2.92,5.46A6.08,6.08,0,0,1,223.5,160a6.83,6.83,0,0,1-2.46,5.39,9.34,9.34,0,0,1-6.38,2.11ZM208.77,153h5.53a4.93,4.93,0,0,0,3.52-1.23,4.42,4.42,0,0,0,0-6.23,4.71,4.71,0,0,0-3.49-1.23h-5.54Zm0,12H215a6.31,6.31,0,0,0,4.31-1.3,4.44,4.44,0,0,0,1.49-3.48,4.5,4.5,0,0,0-1.47-3.5,6.26,6.26,0,0,0-4.29-1.31h-6.26Z"/><path class="cls-1" d="M225.12,167.46l11.43-25.71h2.22l11.47,25.71h-2.89l-3.61-8h-12.3l-3.54,8Zm12.49-21.83-5,11.25h10Z"/><path class="cls-1" d="M257.17,167.46v-23.1h-8.33v-2.61h19.33v2.61h-8.33v23.1Z"/><path class="cls-1" d="M272.37,167.46V141.75h2.76v11.19h15V141.75h2.74v25.71h-2.74V155.54h-15v11.92Z"/><path class="cls-1" d="M300.07,167.46V141.75h8.4a8,8,0,0,1,5.57,1.87,7.31,7.31,0,0,1,.25,9.84,7.54,7.54,0,0,1-4.92,2.08l10.17,11.92H316l-10.17-12h-2.93v12ZM302.83,153h5.32c3.42,0,5.14-1.43,5.14-4.31s-1.72-4.34-5.14-4.34h-5.32Z"/><path class="cls-1" d="M343.32,164.05a13.53,13.53,0,1,1,3.86-9.45A12.88,12.88,0,0,1,343.32,164.05Zm-16.91-1.84a10.62,10.62,0,0,0,14.95,0,11.09,11.09,0,0,0,0-15.2,10.6,10.6,0,0,0-14.95,0A11.07,11.07,0,0,0,326.41,162.21Z"/><path class="cls-1" d="M373.37,164.05a13.52,13.52,0,1,1,3.86-9.45A12.88,12.88,0,0,1,373.37,164.05Zm-16.9-1.84a10.61,10.61,0,0,0,14.94,0,11.09,11.09,0,0,0,0-15.2,10.59,10.59,0,0,0-14.94,0A11.07,11.07,0,0,0,356.47,162.21Z"/><path class="cls-1" d="M382.55,141.75h2.54L395,155l9.92-13.21h2.53v25.71h-2.77V146.55L395,159.46l-9.7-12.91v20.91h-2.74Z"/><path class="cls-1" d="M437.86,168.17a7.68,7.68,0,0,1-5.47-2,6.9,6.9,0,0,1-2.15-5.18,6,6,0,0,1,1.43-4.12,15.92,15.92,0,0,1,4-3.11l.57-.32a18.09,18.09,0,0,1-2.36-2.88,5.73,5.73,0,0,1-.88-3.06,5.17,5.17,0,0,1,1.82-4.07,6.66,6.66,0,0,1,4.49-1.53,6,6,0,0,1,4.35,1.64,5.61,5.61,0,0,1,1.68,4.15q0,3.66-5.14,6.32l5.86,5.72,3.2-4.18h2.89l-4.43,5.79,6.7,6.51H451l-4.78-4.64a18.37,18.37,0,0,1-4.06,3.81A7.88,7.88,0,0,1,437.86,168.17Zm.17-2.34a5.7,5.7,0,0,0,3.34-1,15.7,15.7,0,0,0,3.21-3.25L437.9,155l-.8.39a11.92,11.92,0,0,0-3.2,2.35,5,5,0,0,0,.46,6.7A5.38,5.38,0,0,0,438,165.83Zm-2.57-18.32a3.61,3.61,0,0,0,.46,1.76,6.77,6.77,0,0,0,.95,1.4c.32.36.87.9,1.64,1.62l.21-.11c.91-.5,1.6-.91,2.07-1.22a5.56,5.56,0,0,0,1.35-1.3,3,3,0,0,0,.64-1.86,3.91,3.91,0,0,0-1-2.71,3.42,3.42,0,0,0-2.63-1.06,3.93,3.93,0,0,0-2.66.94,3.17,3.17,0,0,0-1.07,2.57Z"/><path class="cls-1" d="M474.41,167.18V141.55h2.73v11.16h15V141.55h2.75v25.63h-2.75V155.3h-15v11.88Z"/><path class="cls-1" d="M522.83,163.79a13.5,13.5,0,1,1,3.85-9.42A12.84,12.84,0,0,1,522.83,163.79ZM506,162a10.58,10.58,0,0,0,14.9,0,11,11,0,0,0,0-15.15,10.56,10.56,0,0,0-14.9,0A11,11,0,0,0,506,162Z"/><path class="cls-1" d="M532,141.55h2.53l9.9,13.17,9.88-13.17h2.53v25.63H554V146.33l-9.68,12.88-9.67-12.88v20.85H532Z"/><path class="cls-1" d="M564,167.18V141.55h14.61v2.6H566.7v8.59h9.71v2.58H566.7v9.29h11.87v2.6Z"/><path class="cls-1" d="M592.81,167.18V141.55h8.38a7.9,7.9,0,0,1,5.55,1.86,7.28,7.28,0,0,1,.24,9.82,7.47,7.47,0,0,1-4.91,2.07l10.15,11.88h-3.6l-10.14-11.91h-2.92v11.91Zm2.75-14.44h5.31q5.11,0,5.11-4.3c0-2.87-1.7-4.33-5.11-4.33h-5.31Z"/><path class="cls-1" d="M615.49,167.18V141.55h14.59v2.6H618.2v8.59h9.71v2.58H618.2v9.29h11.88v2.6Z"/><path class="cls-1" d="M657.06,167.18h-2.45l-16.35-21v21h-2.78V141.55h2.45l16.36,21v-21h2.77Z"/><path class="cls-1" d="M685,163.79a13.47,13.47,0,1,1,3.86-9.42A12.85,12.85,0,0,1,685,163.79ZM668.1,162A10.6,10.6,0,0,0,683,162a11,11,0,0,0,0-15.15,10.59,10.59,0,0,0-14.92,0A11,11,0,0,0,668.1,162Z"/><path class="cls-1" d="M701.29,167.18l-11-25.63h3.08l9.11,21.16,9.1-21.16h3l-11,25.63Z"/><path class="cls-1" d="M713.2,167.18l11.42-25.63h2.19l11.45,25.63h-2.89l-3.58-7.92H719.61l-3.53,8Zm12.46-21.77-5,11.23h10Z"/><path class="cls-1" d="M745.19,167.18v-23h-8.31v-2.6H756.2v2.6h-8.3v23Z"/><path class="cls-1" d="M760.35,167.18V141.55h2.74v25.63Z"/><path class="cls-1" d="M791.06,163.79a13.49,13.49,0,1,1,3.84-9.42A12.87,12.87,0,0,1,791.06,163.79ZM774.19,162a10.6,10.6,0,0,0,14.92,0,11,11,0,0,0,0-15.15,10.59,10.59,0,0,0-14.92,0A11,11,0,0,0,774.19,162Z"/><path class="cls-1" d="M821.72,167.18h-2.45l-16.26-21v21h-2.74V141.55h2.45l16.24,21v-21h2.75Z"/><path class="cls-1" d="M835.54,167.61A11.29,11.29,0,0,1,830,166.3,7.29,7.29,0,0,1,826.7,163l2.28-1.62a7.36,7.36,0,0,0,6.61,3.68,5.8,5.8,0,0,0,3.68-1.15,3.69,3.69,0,0,0,1.46-3.07c0-2.15-1.23-3.68-3.68-4.66l-3.79-1.45a10,10,0,0,1-4.33-2.73,6.49,6.49,0,0,1-1.34-4.26,5.86,5.86,0,0,1,2.22-4.77,8.57,8.57,0,0,1,5.62-1.8,9.16,9.16,0,0,1,4.24,1,8.34,8.34,0,0,1,3,2.52l-2.12,1.74a6.62,6.62,0,0,0-5.24-2.63,5.62,5.62,0,0,0-3.56,1.1,3.38,3.38,0,0,0-1.42,2.82,3.78,3.78,0,0,0,.88,2.66,7.79,7.79,0,0,0,2.95,1.76l3.38,1.29a10.91,10.91,0,0,1,4.48,2.89,6.61,6.61,0,0,1,1.48,4.48,6.25,6.25,0,0,1-2.19,5A8.61,8.61,0,0,1,835.54,167.61Z"/><path class="cls-1" d="M94.79,31.8l27,65.5a48.41,48.41,0,0,0,3.47,6.76,14.29,14.29,0,0,0,5.17,4.72v.91H112v-.91q5-2.61.79-13l-4.2-10.35H75.8l-2.51,6.25c-1.81,4.55-2.67,8.21-2.55,11a7,7,0,0,0,3.35,6.08v.91H55.9v-.91a18.06,18.06,0,0,0,6.37-5.4,52.5,52.5,0,0,0,6-11.2L93.76,31.8Zm-18,50.94h30.62l-15.58-38Z"/><path class="cls-1" d="M151.87,24.37V97.6a22.38,22.38,0,0,0,1,7.67,6,6,0,0,0,3.46,3.47v.91H140v-.91a6,6,0,0,0,3.47-3.47,22.13,22.13,0,0,0,1-7.67V39.07q0-7.16-5-9.32v-.91Z"/><path class="cls-1" d="M219.42,97.07l.79.91a31.64,31.64,0,0,1-9.55,9.38,23.93,23.93,0,0,1-13.08,3.58,27.53,27.53,0,0,1-10.86-2.1,23.47,23.47,0,0,1-8.41-6A26.81,26.81,0,0,1,173,93.46a37.58,37.58,0,0,1-1.87-12.09A39.72,39.72,0,0,1,173,69a29.78,29.78,0,0,1,5.29-9.84,23.34,23.34,0,0,1,8.24-6.3,26.66,26.66,0,0,1,22.4.51,18.74,18.74,0,0,1,7.62,8,28.24,28.24,0,0,1,2.73,13.13v2.73H179.49v2.5a34.19,34.19,0,0,0,2.39,13.42,20.24,20.24,0,0,0,7,8.81A18.74,18.74,0,0,0,200,105.23Q210.32,105.24,219.42,97.07ZM179.73,74.55,211,73.07A32.77,32.77,0,0,0,209.35,63a15.21,15.21,0,0,0-4.66-7,12.07,12.07,0,0,0-7.9-2.64,14.09,14.09,0,0,0-11.66,5.8Q180.63,65,179.73,74.55Z"/><path class="cls-1" d="M258.49,78.08,273.84,98.2a70.06,70.06,0,0,0,5.86,7,17.43,17.43,0,0,0,5.06,3.58v.91H265.49v-.91a4,4,0,0,0,2.61-3.64c.08-1.66-.83-3.75-2.72-6.25L253,82.63l-10.12,14.1q-3.3,4.55-3.07,7.79a4.46,4.46,0,0,0,3.18,4.26v.91H224.19v-.91a26.7,26.7,0,0,0,6.37-3.81,63.49,63.49,0,0,0,8.87-9.38l12.06-14.78-13.2-17.44a78.28,78.28,0,0,0-6-7,18,18,0,0,0-4.94-3.59v-.91h19.33v.91a4,4,0,0,0-2.62,3.64c-.06,1.67.85,3.75,2.73,6.26l10.35,13.53,8-11.14q3.63-5,3.24-8.14a4.71,4.71,0,0,0-3.24-4.15v-.91h18.75v.91a27.18,27.18,0,0,0-7.56,4.78,79.77,79.77,0,0,0-8.13,8.81Z"/><path class="cls-1" d="M340.41,105.71h1.7v.91a9.6,9.6,0,0,1-3.62,2.75,11.12,11.12,0,0,1-4.72,1A7.17,7.17,0,0,1,328.2,108a10.1,10.1,0,0,1-2.39-6.37,19.6,19.6,0,0,1-4.72,5.06,19,19,0,0,1-6.42,3.3,20.37,20.37,0,0,1-13.37-.35,13.13,13.13,0,0,1-6.53-4.88,14.6,14.6,0,0,1-2.62-8.82,15.17,15.17,0,0,1,6.48-12.85q6.48-4.77,18.42-4.78a43.58,43.58,0,0,1,8.76.69V67.84q0-7.38-3.41-10.91T313,53.37q-8,0-11.71,4.89a6.72,6.72,0,0,1,3.35,2A5.3,5.3,0,0,1,306,63.9a5,5,0,0,1-1.65,3.81,5.54,5.54,0,0,1-3.92,1.66,5.25,5.25,0,0,1-4-1.7,6,6,0,0,1-1.57-4.3,9.9,9.9,0,0,1,1-4.21,12.38,12.38,0,0,1,3.75-4.26,19.21,19.21,0,0,1,6.82-3.19A30.28,30.28,0,0,1,314,50.63a32,32,0,0,1,7.23.85,16.74,16.74,0,0,1,6.53,3.19,12.82,12.82,0,0,1,4.21,5.8,20.8,20.8,0,0,1,1.25,7.11V97.94c0,3,.47,5,1.42,6.08S337.49,105.71,340.41,105.71Zm-14.56-7v-17a46.32,46.32,0,0,0-6-.57q-9.09,0-14.21,3.81a12.31,12.31,0,0,0-5.15,10.41,10.62,10.62,0,0,0,3.13,8,11.22,11.22,0,0,0,8.13,3,15.91,15.91,0,0,0,7.85-2.16,18.51,18.51,0,0,0,6.25-5.55Z"/><path class="cls-1" d="M366,65.23V97.64a22.38,22.38,0,0,0,1,7.67,6,6,0,0,0,3.47,3.47v.91h-16.3v-.91a6,6,0,0,0,3.47-3.47,22.13,22.13,0,0,0,1-7.67V65a13.69,13.69,0,0,0-.91-5.29A7.52,7.52,0,0,0,353.63,56v-.91L366,50.67V62.73Q378,50.67,389.3,50.67q15.12,0,15.13,16.49V97.64a22.62,22.62,0,0,0,1,7.67,6,6,0,0,0,3.47,3.47v.91H392.6v-.91a6,6,0,0,0,3.47-3.47,22.13,22.13,0,0,0,1-7.67V70.8q0-7.05-2.67-10.29t-8.7-3.24a27.29,27.29,0,0,0-9,1.87A40,40,0,0,0,366,65.23Z"/><path class="cls-1" d="M472.77,24.37v72.2a19,19,0,0,0,1,6.43,6.84,6.84,0,0,0,4,4v.92l-12.4,3v-10.5a26.06,26.06,0,0,1-7.56,7.27,18.57,18.57,0,0,1-10.52,3.3,24.32,24.32,0,0,1-10-2,21.14,21.14,0,0,1-7.67-5.74,26.47,26.47,0,0,1-4.89-9,38.07,38.07,0,0,1-1.71-11.66,40.65,40.65,0,0,1,2-12.85,29.93,29.93,0,0,1,5.69-10.17A24.68,24.68,0,0,1,439.69,53a28.49,28.49,0,0,1,11.48-2.28,29.66,29.66,0,0,1,8.07,1,23,23,0,0,1,6.14,2.61V37.94q0-7.17-6.14-9.33V27.7Zm-7.4,73.23V64.77a16.79,16.79,0,0,0-5.28-8.3,14.21,14.21,0,0,0-9.38-3.1,16.56,16.56,0,0,0-14.16,7.11q-5.18,7.11-5.17,20.07,0,11.72,5.28,18.14a16.72,16.72,0,0,0,13.48,6.42,18.3,18.3,0,0,0,8.41-2.21,20.76,20.76,0,0,0,6.82-5.26Z"/><path class="cls-1" d="M540.31,97.07l.8.91a31.68,31.68,0,0,1-9.56,9.38,24,24,0,0,1-13.06,3.58,27.53,27.53,0,0,1-10.86-2.1,23.6,23.6,0,0,1-8.42-6,26.94,26.94,0,0,1-5.34-9.38A37.87,37.87,0,0,1,492,81.37,39.73,39.73,0,0,1,493.86,69a29.5,29.5,0,0,1,5.29-9.84,23.39,23.39,0,0,1,8.18-6.31,26.66,26.66,0,0,1,22.4.51,18.74,18.74,0,0,1,7.62,8,28.24,28.24,0,0,1,2.73,13.13v2.73H500.4v2.5a34,34,0,0,0,2.38,13.42,20.37,20.37,0,0,0,7,8.81,18.69,18.69,0,0,0,11.08,3.24Q531.21,105.25,540.31,97.07ZM500.62,74.55l31.28-1.48A33.07,33.07,0,0,0,530.25,63a15.23,15.23,0,0,0-4.67-7,12.09,12.09,0,0,0-7.9-2.56A14,14,0,0,0,506,59.25Q501.5,65,500.62,74.55Z"/><path class="cls-1" d="M566.58,63.18a53.2,53.2,0,0,1,7-7.39,22.78,22.78,0,0,1,6.26-4.09,12.71,12.71,0,0,1,4.37-1,6,6,0,0,1,4.6,1.67,5.78,5.78,0,0,1,1.88,4.32A6,6,0,0,1,589,61.07a5.73,5.73,0,0,1-4.32,1.76,5.5,5.5,0,0,1-4-1.82,6.86,6.86,0,0,1-1.92-4.64c-1.33.15-3.19,1.2-5.57,3.13a42,42,0,0,0-6.59,6.87V97.64a23.87,23.87,0,0,0,.91,6.93c.6,2,2.16,3.38,4.66,4.21v.91h-17.4v-.91a6,6,0,0,0,3.47-3.47,22.13,22.13,0,0,0,1-7.67V65a13.88,13.88,0,0,0-.91-5.29,7.53,7.53,0,0,0-4.1-3.69v-.91l12.4-4.44Z"/><path class="cls-1" d="M635.6,33.05h21.83q14.67,0,22.57,5.74t7.91,16.09a24.18,24.18,0,0,1-1.54,8.42,19.66,19.66,0,0,1-5.57,7.84,24.18,24.18,0,0,1-10,5.29,44.13,44.13,0,0,1-11.88,1.65,30.32,30.32,0,0,1-6.37-.57V76.6q12.87-.34,19.5-5.74t6.66-15.18q0-9.9-6.37-14.84t-18.08-5h-6.14V97.64a22.62,22.62,0,0,0,1,7.67,6,6,0,0,0,3.47,3.47v.91h-17v-.91a6,6,0,0,0,3.47-3.47,22.13,22.13,0,0,0,1-7.67V45.1a22.43,22.43,0,0,0-1-7.68A6,6,0,0,0,635.6,34Z"/><path class="cls-1" d="M744.65,105.71h1.71v.91a9.7,9.7,0,0,1-3.58,2.73,11.17,11.17,0,0,1-4.73,1,7.14,7.14,0,0,1-5.56-2.38,10,10,0,0,1-2.39-6.37,19.6,19.6,0,0,1-4.72,5.06A19,19,0,0,1,719,110a20.34,20.34,0,0,1-13.36-.35,13.15,13.15,0,0,1-6.54-4.88,14.66,14.66,0,0,1-2.61-8.82,15.17,15.17,0,0,1,6.48-12.85q6.48-4.77,18.42-4.78a44.32,44.32,0,0,1,8.76.69V67.84q0-7.38-3.42-10.91t-9.43-3.56q-8,0-11.72,4.89a6.71,6.71,0,0,1,3.36,2,5.3,5.3,0,0,1,1.31,3.64,5,5,0,0,1-1.65,3.81,5.57,5.57,0,0,1-3.93,1.66,5.22,5.22,0,0,1-4-1.7,6,6,0,0,1-1.6-4.21,9.9,9.9,0,0,1,1-4.21A12.38,12.38,0,0,1,703.77,55a19,19,0,0,1,6.82-3.19,30.28,30.28,0,0,1,7.62-1.08,31.81,31.81,0,0,1,7.22.85A16.71,16.71,0,0,1,732,54.76a12.82,12.82,0,0,1,4.21,5.8,20.77,20.77,0,0,1,1.31,7.06V98c0,3,.47,5,1.42,6.08S741.77,105.71,744.65,105.71Zm-14.55-7v-17a46.32,46.32,0,0,0-6-.57q-9.11,0-14.22,3.81a12.3,12.3,0,0,0-5.11,10.4,10.66,10.66,0,0,0,3.12,8,11.25,11.25,0,0,0,8.14,3,15.88,15.88,0,0,0,7.84-2.16,18.41,18.41,0,0,0,6.23-5.54Z"/><path class="cls-1" d="M799.35,96.37V65a13.88,13.88,0,0,0-.91-5.29,7.53,7.53,0,0,0-4.1-3.69v-.91l12.4-4.44V96.61a19,19,0,0,0,1,6.43,6.84,6.84,0,0,0,4,4V108l-12.39,3v-12a42.75,42.75,0,0,1-10.81,9.15A22.4,22.4,0,0,1,777.4,111q-7.38,0-11.26-4.32t-3.86-12.17V65a13.88,13.88,0,0,0-.91-5.29,7.53,7.53,0,0,0-4.1-3.69v-.91l12.4-4.44V90.81q0,7.05,2.67,10.3c1.78,2.15,4.68,3.24,8.7,3.24Q789.59,104.37,799.35,96.37Z"/><path class="cls-1" d="M840.06,24.37V97.6a22.62,22.62,0,0,0,1,7.67,6,6,0,0,0,3.47,3.47v.91h-16.3v-.91a6,6,0,0,0,3.47-3.47,22.13,22.13,0,0,0,1-7.67V39.07q0-7.16-5-9.32v-.91Z"/></svg>